<svg xmlns="http://www.w3.org/2000/svg" xmlns:xlink="http://www.w3.org/1999/xlink" width="156" height="156" viewBox="0 0 156 156">
  <defs>
    <filter id="Rectangle_12" x="0" y="0" width="156" height="156" filterUnits="userSpaceOnUse">
      <feOffset dy="3" input="SourceAlpha"/>
      <feGaussianBlur stdDeviation="3" result="blur"/>
      <feFlood/>
      <feComposite operator="in" in2="blur"/>
      <feComposite in="SourceGraphic"/>
    </filter>
  </defs>
  <g id="AWS" transform="translate(-1433 -423)">
    <g transform="matrix(1, 0, 0, 1, 1433, 423)" filter="url(#Rectangle_12)">
      <path id="Rectangle_12-2" data-name="Rectangle 12" d="M0,0H120a18,18,0,0,1,18,18V138a0,0,0,0,1,0,0H18A18,18,0,0,1,0,120V0A0,0,0,0,1,0,0Z" transform="translate(9 6)" fill="#4f4f50"/>
    </g>
    <text id="AWS-2" data-name="AWS" transform="translate(1491 549)" fill="#f90" font-size="20" font-family="Rajdhani-Medium, Rajdhani" font-weight="500" letter-spacing="0.05em"><tspan x="0" y="0">AWS</tspan></text>
    <g id="aws-2-2" data-name="aws-2" transform="translate(1472.53 456.254)">
      <path id="Path_18" data-name="Path 18" d="M31.8,20.311a10.6,10.6,0,0,0,.269,2.618,17.506,17.506,0,0,0,.783,2.118,1.473,1.473,0,0,1,.171.677,1.218,1.218,0,0,1-.465.883l-1.542,1.236a.876.876,0,0,1-1.371-.147,9.126,9.126,0,0,1-.881-1.383c-.245-.5-.49-1.059-.759-1.736a8.538,8.538,0,0,1-7.2,4.06,6.1,6.1,0,0,1-4.9-2.118A8.438,8.438,0,0,1,14.1,20.87a8.313,8.313,0,0,1,2.228-6.061,7.973,7.973,0,0,1,6-2.295,16.2,16.2,0,0,1,2.595.235,28.315,28.315,0,0,1,2.815.647V11.25c0-2.236-.392-3.8-1.151-4.707-.783-.912-2.105-1.353-3.99-1.353a9.369,9.369,0,0,0-2.644.382,17.224,17.224,0,0,0-2.644,1,6.314,6.314,0,0,1-.857.382,1.278,1.278,0,0,1-.392.088c-.343,0-.514-.294-.514-.912V4.689a2.178,2.178,0,0,1,.171-1.03,1.919,1.919,0,0,1,.685-.618,12.647,12.647,0,0,1,3.085-1.324A12.494,12.494,0,0,1,23.3,1.159c2.913,0,5.043.794,6.414,2.383,1.346,1.589,2.032,4,2.032,7.237v9.532ZM21.86,24.783a6.747,6.747,0,0,0,2.521-.53,5.519,5.519,0,0,0,2.326-1.883,5.037,5.037,0,0,0,.832-1.883,12.6,12.6,0,0,0,.245-2.56V16.693a17.393,17.393,0,0,0-2.252-.5,15.4,15.4,0,0,0-2.3-.177,4.979,4.979,0,0,0-3.648,1.177,4.511,4.511,0,0,0-1.2,3.383,4.621,4.621,0,0,0,.906,3.119,3.085,3.085,0,0,0,2.57,1.089ZM41.518,27.96a1.206,1.206,0,0,1-.93-.294,2.56,2.56,0,0,1-.514-1.147L34.321,3.777A6.062,6.062,0,0,1,34.1,2.6c0-.471.2-.736.588-.736h2.4a1.2,1.2,0,0,1,.955.294,2.592,2.592,0,0,1,.49,1.147l4.113,19.476L46.463,3.306a2.233,2.233,0,0,1,.465-1.147,1.475,1.475,0,0,1,.979-.294h1.958a1.3,1.3,0,0,1,.979.294,2.146,2.146,0,0,1,.465,1.147l3.868,19.711L59.413,3.306a2.716,2.716,0,0,1,.49-1.147,1.4,1.4,0,0,1,.955-.294h2.277c.392,0,.612.235.612.736a3.5,3.5,0,0,1-.049.471,4.865,4.865,0,0,1-.171.736l-5.9,22.742a2.4,2.4,0,0,1-.514,1.147,1.377,1.377,0,0,1-.93.294H54.076A1.3,1.3,0,0,1,53.1,27.7a2.268,2.268,0,0,1-.465-1.177L48.837,7.543l-3.77,18.947a2.5,2.5,0,0,1-.465,1.177,1.332,1.332,0,0,1-.979.294Zm31.457.794a13.621,13.621,0,0,1-3.77-.53,9.978,9.978,0,0,1-2.815-1.177,1.943,1.943,0,0,1-.759-.824,2.438,2.438,0,0,1-.147-.824V23.9c0-.618.2-.912.563-.912a1.177,1.177,0,0,1,.441.088c.147.059.367.177.612.294a11.779,11.779,0,0,0,2.693,1.03,12.328,12.328,0,0,0,2.913.353,5.734,5.734,0,0,0,3.574-.971,3.359,3.359,0,0,0,1.273-2.795,3.2,3.2,0,0,0-.661-2.059,5.892,5.892,0,0,0-2.473-1.53l-3.55-1.324a7.5,7.5,0,0,1-3.917-3,7.96,7.96,0,0,1-1.224-4.266,7.625,7.625,0,0,1,.661-3.266A7.521,7.521,0,0,1,70.7,1.6a9.005,9.005,0,0,1,3.085-.5,10.255,10.255,0,0,1,1.64.118c.563.088,1.077.206,1.591.324.49.147.955.294,1.4.471a4.926,4.926,0,0,1,1.028.53,2.274,2.274,0,0,1,.734.736,1.827,1.827,0,0,1,.22.971V5.631c0,.618-.2.941-.563.941a2.244,2.244,0,0,1-.93-.353,9.615,9.615,0,0,0-4.7-1.147,5.458,5.458,0,0,0-3.256.824,3.019,3.019,0,0,0-1.151,2.618,3.073,3.073,0,0,0,.734,2.089,6.968,6.968,0,0,0,2.693,1.618L76.7,13.545a7.433,7.433,0,0,1,3.794,2.824,7.586,7.586,0,0,1,1.126,4.119A8.85,8.85,0,0,1,80.98,23.9a7.768,7.768,0,0,1-1.787,2.589,7.494,7.494,0,0,1-2.717,1.648,9.848,9.848,0,0,1-3.5.618Z" transform="translate(-9.389 0)"/>
      <g id="Group_7" data-name="Group 7" transform="translate(1.668 34.078)">
        <path id="Path_19" data-name="Path 19" d="M68.213,126.368c-8.054,7.149-19.756,10.944-29.817,10.944-14.1,0-26.806-6.266-36.4-16.681-.759-.824-.073-1.942.832-1.294a64.2,64.2,0,0,0,36.427,11.621,62.317,62.317,0,0,0,27.785-6.825C68.384,123.4,69.535,125.191,68.213,126.368Z" transform="translate(-1.668 -117.392)" fill="#f90" fill-rule="evenodd"/>
        <path id="Path_20" data-name="Path 20" d="M256.076,117.578c-1.028-1.589-6.806-.765-9.425-.382-.783.118-.906-.706-.2-1.324,4.6-3.883,12.167-2.765,13.048-1.471.881,1.324-.245,10.415-4.553,14.769-.661.677-1.3.324-1-.559C254.925,125.7,257.1,119.137,256.076,117.578Z" transform="translate(-186.177 -113.192)" fill="#f90" fill-rule="evenodd"/>
      </g>
    </g>
  </g>
</svg>
