<svg id="Group_2" data-name="Group 2" xmlns="http://www.w3.org/2000/svg" width="500" height="500" viewBox="0 0 500 500">
  <rect id="Rectangle_1" data-name="Rectangle 1" width="500" height="500" rx="250" fill="#2d2d2e"/>
  <g id="Group_1" data-name="Group 1" transform="translate(-0.402 -5.722)">
    <path id="Path_1" data-name="Path 1" d="M25.731,199.511H200.422V285.2H163.13v-46.9H57.719v33.645l.829,4.641.994,6.63.829,5.635,1.492,9.116,1.989,7.127L67.5,318.8,77.608,343l15.414,24.53,11.436,14.254,13.922,14.751,18.231,15.414,12.431,8.619,13.259,6.464V359.409H111.585l-23.2-38.286H200.919l.166,160.644-10.939-1.823-11.768-3.315-15.248-5.967-15.414-7.127-19.06-10.442-14.254-8.95L97.5,430.388,77.774,410.333l-14.751-17.4-10.11-15.414-7.624-14.088L34.681,341.053,27.554,318.8l-4.806-20.842L21.11,284.8l-1.177-11.769V238.9L21.11,229l1.275-9.219,1.373-8.115,1.177-6.669Z" fill="#ffe500"/>
    <path id="Path_2" data-name="Path 2" d="M299.927,199.654H474.752l.765,4.144,1.53,6.63,1.53,6.885,1.4,8.287.892,6.5v43.73H442.879V237.966H338.207v83.349H471.692v2.932l-1.53,4.08-1.912,5.737-2.295,5.928-3.06,7.395-3.442,7.395-4.845,9.944-3.7,5.865-3.187,5.61-3.187,4.845-3.7,6.024-5.1,7.522L430,401.348l-6.12,7.14-7.777,8.032-5.992,6.247-5.227,4.845-5.355,4.717-5.737,4.717-5.61,4.335-6.885,4.845-4.558,3.124-5.61,3.315-7.777,4.845-9.18,4.717-7.012,3.187-7.9,3.57-7.522,3.187-8.8,2.932-7.65,2.422-7.14,1.785-6.12,1.785h-2.422v-83h38.758v29.515l4.59-2.359,5.482-3.315,8.16-5.418,4.845-3.251,3.952-2.932,5.737-4.08,6.375-5.737,5.482-4.972,5.2-4.59,3.219-3.889,3.952-4.3,4.175-4.845,3.474-4.462,3.187-4.335,2.677-3.187,2.422-3.57,1.02-3.06h-112.7Z" fill="#ffe500"/>
    <path id="Path_3" data-name="Path 3" d="M39.153,160.932H82.606l1.056-2.339,1.132-2.565,1.433-2.112,1.66-2.64,1.66-2.339,1.433-1.961,1.66-2.263L94.45,142l2.565-3.47,2.037-2.64,2.037-2.414,1.735-2.49,2.263-2.49,3.772-3.791,4.225-4.3,4.6-4.376,5.733-5.356,6.261-5.356,5.281-4.376L140.77,96.9l4.79-3.055,3.923-2.263,4.3-2.64,4.828-2.791,3.923-2.112,4.3-2.112,4.526-2.263,5.583-2.339,5.733-2.64,5.96-1.961,6.79-2.037,3.433-1.132,4.451-1.132,5.054-1.056,5.054-.981,4.677-.905,4.677-.905,2.716-.453h5.356V486.152h38.663l-.339-422.028H278l4.6.981,5.13,1.282,4.979.981,3.847,1.056,5.507,1.207,7.921,2.64,8.3,2.565,9.505,4.149,6.035,2.584,7.393,3.7,9.2,5.205,7.846,5.054,6.488,4.677,8.751,7.091,7.242,6.111,5.356,5.356,4.376,4.225,4,4.3,3.923,4.9,3.47,3.923,3.47,4.677,3.546,5.281,3.546,4.677,3.168,4.526,1.961,3.244.83,1.358v1.207h43.378l-2.414-4.828-2.942-6.412-4.526-8.3-4.3-7.393-5.356-8.223-5.281-7.167-3.923-5.356-4.979-6.111-5.658-6.261L416.955,95l-6.639-6.488-7.242-6.94-8.6-7.242-5.62-4.187-7.091-4.979-5.054-3.395-5.13-3.395-7.242-4.3-6.073-3.093-6.3-3.168L345.193,44.7,336.819,41.3l-7.242-2.942-10.335-3.546-5.865-1.754-5.583-1.509-9.279-2.49L291.2,27.479,284.03,26.2l-6.563-.905-54.071.377-5.3.905-8.129,1.433-6.658,1.056-4.866.905-5.96,1.282-7.77,2.188-8.374,2.942-7.94,2.49-6.412,2.339-6.563,2.867-8,4.149-8.676,4.3L130.379,57.5l-6.243,4.017-6.111,4.3-5.507,4-6.79,5.205L100.523,79.1,95.092,84.04l-4.9,4.9L85.435,93.13l-4.979,5.281-4.6,5.186-4.979,5.96-4.753,6.035L62.5,120.4l-2.942,4.3-4.526,6.676-2.565,4.508L48.923,142l-2.867,4.979-2.263,3.791-2.037,4Z" fill="#ffe500"/>
  </g>
</svg>
