<svg xmlns="http://www.w3.org/2000/svg" xmlns:xlink="http://www.w3.org/1999/xlink" width="156" height="156" viewBox="0 0 156 156">
  <defs>
    <filter id="Rectangle_7" x="0" y="0" width="156" height="156" filterUnits="userSpaceOnUse">
      <feOffset dy="3" input="SourceAlpha"/>
      <feGaussianBlur stdDeviation="3" result="blur"/>
      <feFlood/>
      <feComposite operator="in" in2="blur"/>
      <feComposite in="SourceGraphic"/>
    </filter>
  </defs>
  <g id="CSS" transform="translate(-677 -235)">
    <g transform="matrix(1, 0, 0, 1, 677, 235)" filter="url(#Rectangle_7)">
      <path id="Rectangle_7-2" data-name="Rectangle 7" d="M0,0H120a18,18,0,0,1,18,18V138a0,0,0,0,1,0,0H18A18,18,0,0,1,0,120V0A0,0,0,0,1,0,0Z" transform="translate(9 6)" fill="#4f4f50"/>
    </g>
    <text id="css3" transform="translate(732 362)" fill="#33a9dc" font-size="20" font-family="Rajdhani-Medium, Rajdhani" font-weight="500" letter-spacing="0.05em"><tspan x="0" y="0">CSS3</tspan></text>
    <g id="css3-original" transform="translate(713.79 257.648)">
      <path id="Path_23" data-name="Path 23" d="M14.666,67.6,8.76,1.352h64.9L67.749,67.589,41.171,74.958,14.666,67.6Z" transform="translate(0 0)" fill="#1572b6"/>
      <path id="Path_24" data-name="Path 24" d="M64,73.13l21.477-5.954,5.053-56.6H64Z" transform="translate(-22.79 -3.804)" fill="#33a9dc"/>
      <path id="Path_25" data-name="Path 25" d="M64,39.88H74.752l.743-8.32H64V23.435H84.375l-.2,2.18-2,22.39H64Z" transform="translate(-22.79 -9.11)" fill="#fff"/>
      <path id="Path_26" data-name="Path 26" d="M51.57,81.09l-.036.011-9.048-2.443-.579-6.48H33.752L34.89,84.935l16.643,4.619.037-.011Z" transform="translate(-10.31 -29.219)" fill="#ebebeb"/>
      <path id="Path_27" data-name="Path 27" d="M74.076,64.675,73.1,75.556,64.035,78v8.453l16.657-4.616.122-1.373,1.413-15.791Z" transform="translate(-22.804 -26.124)" fill="#fff"/>
      <path id="Path_28" data-name="Path 28" d="M49.755,23.435V31.56H30.129l-.163-1.826-.37-4.119-.194-2.18H49.755Zm-.028,16.446v8.125H40.793L40.63,46.18l-.371-4.119-.194-2.18Z" transform="translate(-8.516 -9.11)" fill="#ebebeb"/>
    </g>
  </g>
</svg>
