<svg xmlns="http://www.w3.org/2000/svg" xmlns:xlink="http://www.w3.org/1999/xlink" width="156" height="156" viewBox="0 0 156 156">
  <defs>
    <filter id="Rectangle_10" x="0" y="0" width="156" height="156" filterUnits="userSpaceOnUse">
      <feOffset dy="3" input="SourceAlpha"/>
      <feGaussianBlur stdDeviation="3" result="blur"/>
      <feFlood/>
      <feComposite operator="in" in2="blur"/>
      <feComposite in="SourceGraphic"/>
    </filter>
  </defs>
  <g id="EXPRESSJS" transform="translate(-1181 -423)">
    <g transform="matrix(1, 0, 0, 1, 1181, 423)" filter="url(#Rectangle_10)">
      <path id="Rectangle_10-2" data-name="Rectangle 10" d="M0,0H120a18,18,0,0,1,18,18V138a0,0,0,0,1,0,0H18A18,18,0,0,1,0,120V0A0,0,0,0,1,0,0Z" transform="translate(9 6)" fill="#4f4f50"/>
    </g>
    <text id="ExpressJS-2" data-name="ExpressJS" transform="translate(1208 550)" font-size="20" font-family="Rajdhani-Medium, Rajdhani" font-weight="500" letter-spacing="0.05em"><tspan x="0" y="0">EXPRESSJS</tspan></text>
    <path id="express-original" d="M74.9,69.756c-2.677.69-4.333.03-5.818-2.232-3.335-5.064-7.016-9.9-10.568-14.817-.458-.637-.933-1.262-1.526-2.053-4.2,5.748-8.4,11.223-12.341,16.918-1.409,2.035-2.889,2.922-5.519,2.2l15.8-21.5L40.225,28.856c2.53-.5,4.28-.244,5.83,2.053,3.423,5.07,7.2,9.9,10.961,15,3.787-5.088,7.515-9.92,11.038-14.942,1.415-2.035,2.936-2.809,5.478-2.059-1.926,2.589-3.81,5.136-5.707,7.665-2.56,3.41-5.073,6.861-7.726,10.2-.945,1.19-.793,1.964.053,3.088C65.059,56.4,69.909,63.008,74.9,69.756ZM1.318,47.916c.423-2.148.7-4.338,1.292-6.445C6.132,28.719,20.575,23.417,30.5,31.32c5.812,4.636,7.257,11.17,6.969,18.537H4.705c-.493,13.217,8.895,21.2,20.86,17.126,4.2-1.428,6.669-4.761,7.908-8.926.628-2.089,1.667-2.416,3.6-1.821-.992,5.213-3.241,9.569-7.938,12.294-7.045,4.082-17.1,2.761-22.392-2.91C3.625,62.288,2.3,58.14,1.711,53.659c-.088-.714-.27-1.416-.411-2.124q.018-1.809.018-3.618Zm3.446-.887H34.371c-.194-9.557-6.065-16.347-14.09-16.406C11.474,30.552,5.146,37.181,4.764,47.03Z" transform="translate(1220.897 434.551)"/>
  </g>
</svg>
