<svg xmlns="http://www.w3.org/2000/svg" width="45.594" height="45.594" viewBox="0 0 45.594 45.594">
  <g id="github_icon" transform="translate(-4 -4)">
    <path id="Path_89" data-name="Path 89" d="M26.8,4a22.793,22.793,0,0,0-7.044,44.472H33.841A22.793,22.793,0,0,0,26.8,4Z" fill="#2100c4"/>
    <path id="Path_90" data-name="Path 90" d="M40.776,25.108a9.766,9.766,0,0,0-2.684-7.322C39.17,15.869,37.743,12,37.743,12a16.769,16.769,0,0,0-6.393,2.708,31,31,0,0,0-5.391-.429,30.693,30.693,0,0,0-5.51.448A16.781,16.781,0,0,0,14.028,12s-1.464,3.98-.291,5.866a9.814,9.814,0,0,0-2.6,7.243c0,6.978,4.421,9.778,10.5,10.571a5.653,5.653,0,0,0-1.378,3.677V39.7a4.288,4.288,0,0,1-.586.123,5.788,5.788,0,0,1-3.229-.38,7.508,7.508,0,0,1-1.971-2.067,4.232,4.232,0,0,0-3.894-2.256.555.555,0,0,0-.57.642c.049.221.243.57,1.021.855a3.5,3.5,0,0,1,1.639,1.662c.476.768.475,2.813,2.92,3.894a7.212,7.212,0,0,0,4.67.373V46.2A1.169,1.169,0,0,1,18.9,47.351a22.728,22.728,0,0,0,14.11,0A1.169,1.169,0,0,1,31.657,46.2V39.356a5.653,5.653,0,0,0-1.378-3.677C36.354,34.886,40.776,32.086,40.776,25.108Z" transform="translate(0.839 1.119)" fill="#ddbaff"/>
    <path id="Path_91" data-name="Path 91" d="M15.241,18.5l4.375-1.458a1.494,1.494,0,0,0,.416-2.624l-.042-.03a12.318,12.318,0,0,0-6.711,3.138A2.125,2.125,0,0,0,15.241,18.5Z" transform="translate(1.297 1.453)" fill="#ddbaff"/>
    <path id="Path_92" data-name="Path 92" d="M28.769,14.406a1.508,1.508,0,0,0,.417,2.652l4.346,1.449a2.121,2.121,0,0,0,2.021-1.053,12.505,12.505,0,0,0-6.742-3.079Z" transform="translate(3.377 1.451)" fill="#ddbaff"/>
    <path id="Path_93" data-name="Path 93" d="M24.53,31a5.66,5.66,0,0,0-4.321,2.022,33.474,33.474,0,0,0,4.321.258,33.474,33.474,0,0,0,4.321-.258A5.66,5.66,0,0,0,24.53,31Z" transform="translate(2.267 3.776)" fill="#ddbaff"/>
  </g>
</svg>
