<svg xmlns="http://www.w3.org/2000/svg" width="74" height="74" viewBox="0 0 74 74">
  <g id="Github" transform="translate(-675 -141)">
    <circle id="Ellipse_5" data-name="Ellipse 5" cx="37" cy="37" r="37" transform="translate(675 141)" fill="#4f4f50"/>
    <g id="icons8-github" transform="translate(685 151)">
      <path id="Path_1" data-name="Path 1" d="M31.5,4A27.48,27.48,0,0,0,23,57.62H40A27.48,27.48,0,0,0,31.5,4Z" transform="translate(-4 -4)" fill="#2100c4"/>
      <path id="Path_2" data-name="Path 2" d="M47.86,28.126c0-4.062-1.227-6.963-3.3-9.008C45.884,16.759,44.129,12,44.129,12a20.629,20.629,0,0,0-7.865,3.332,38.133,38.133,0,0,0-6.633-.527,37.758,37.758,0,0,0-6.778.551A20.644,20.644,0,0,0,14.955,12s-1.8,4.9-.358,7.216c-2.014,2.039-3.2,4.915-3.2,8.91,0,8.584,5.439,12.028,12.913,13a6.954,6.954,0,0,0-1.7,4.524v.428a5.277,5.277,0,0,1-.721.151,7.121,7.121,0,0,1-3.973-.467A9.236,9.236,0,0,1,15.5,43.223a5.207,5.207,0,0,0-4.79-2.775.683.683,0,0,0-.7.789c.06.272.3.7,1.256,1.052a4.306,4.306,0,0,1,2.016,2.044c.586.945.585,3.461,3.593,4.79a8.872,8.872,0,0,0,5.745.459v4.486a1.438,1.438,0,0,1-1.67,1.42,27.959,27.959,0,0,0,17.358,0,1.439,1.439,0,0,1-1.669-1.422V45.654a6.954,6.954,0,0,0-1.7-4.524C42.421,40.154,47.86,36.71,47.86,28.126Z" transform="translate(-2.089 -1.871)" fill="#ddbaff"/>
      <path id="Path_3" data-name="Path 3" d="M15.693,19.451l5.382-1.793a1.837,1.837,0,0,0,.512-3.228l-.052-.036a15.154,15.154,0,0,0-8.256,3.86A2.614,2.614,0,0,0,15.693,19.451Z" transform="translate(-0.569 -0.131)" fill="#ddbaff"/>
      <path id="Path_4" data-name="Path 4" d="M28.913,14.413a1.856,1.856,0,0,0,.513,3.263l5.347,1.782a2.61,2.61,0,0,0,2.486-1.3,15.384,15.384,0,0,0-8.294-3.787Z" transform="translate(4.928 -0.138)" fill="#ddbaff"/>
      <path id="Path_5" data-name="Path 5" d="M25.525,31a6.963,6.963,0,0,0-5.316,2.488,41.178,41.178,0,0,0,5.316.317,41.178,41.178,0,0,0,5.316-.317A6.963,6.963,0,0,0,25.525,31Z" transform="translate(1.975 6.086)" fill="#ddbaff"/>
    </g>
  </g>
</svg>
