<svg xmlns="http://www.w3.org/2000/svg" width="63" height="63" viewBox="0 0 63 63">
  <g id="Gmail" transform="translate(-776 -141)">
    <circle id="Ellipse_6" data-name="Ellipse 6" cx="31.5" cy="31.5" r="31.5" transform="translate(776 141)" fill="#4d4d4e"/>
    <g id="icons8-gmail" transform="translate(788.136 155.902)">
      <path id="Path_6" data-name="Path 6" d="M45.065,16.2l-5.033,2.768L35,23.749V40.155h7.046a3.019,3.019,0,0,0,3.02-3.02Z" transform="translate(-5.586 -7.947)" fill="#4caf50"/>
      <path id="Path_7" data-name="Path 7" d="M3,16.2l3.638,1.721,6.428,5.828V40.155H6.02A3.019,3.019,0,0,1,3,37.136Z" transform="translate(-3 -7.947)" fill="#1e88e5"/>
      <path id="Path_8" data-name="Path 8" d="M32.471,11.2l-9.791,8.3L12.89,11.2,12,17.038l.89,6.744,9.791,8.3,9.791-8.3.89-6.744Z" transform="translate(-2.941 -7.979)" fill="#e53935"/>
      <path id="Path_9" data-name="Path 9" d="M3,12.326v3.927L13.065,23.8V11.221L9.921,8.865A4.323,4.323,0,0,0,7.326,8h0A4.326,4.326,0,0,0,3,12.326Z" transform="translate(-3 -8)" fill="#c62828"/>
      <path id="Path_10" data-name="Path 10" d="M45.065,12.326v3.927L35,23.8V11.221l3.144-2.356A4.323,4.323,0,0,1,40.739,8h0A4.326,4.326,0,0,1,45.065,12.326Z" transform="translate(-5.586 -8)" fill="#fbc02d"/>
    </g>
  </g>
</svg>
