<svg xmlns="http://www.w3.org/2000/svg" xmlns:xlink="http://www.w3.org/1999/xlink" width="156" height="156" viewBox="0 0 156 156">
  <defs>
    <filter id="Rectangle_16" x="0" y="0" width="156" height="156" filterUnits="userSpaceOnUse">
      <feOffset dy="3" input="SourceAlpha"/>
      <feGaussianBlur stdDeviation="3" result="blur"/>
      <feFlood/>
      <feComposite operator="in" in2="blur"/>
      <feComposite in="SourceGraphic"/>
    </filter>
  </defs>
  <g id="HEROKU" transform="translate(-929 -754)">
    <g transform="matrix(1, 0, 0, 1, 929, 754)" filter="url(#Rectangle_16)">
      <path id="Rectangle_16-2" data-name="Rectangle 16" d="M0,0H120a18,18,0,0,1,18,18V138a0,0,0,0,1,0,0H18A18,18,0,0,1,0,120V0A0,0,0,0,1,0,0Z" transform="translate(9 6)" fill="#4f4f50"/>
    </g>
    <text id="HEROKU-2" data-name="HEROKU" transform="translate(972 881)" fill="#3d0692" font-size="20" font-family="Rajdhani-Medium, Rajdhani" font-weight="500" letter-spacing="0.05em"><tspan x="0" y="0">HEROKU</tspan></text>
    <path id="heroku-original" d="M69.943,8.657A6.637,6.637,0,0,0,63.286,2H20.657A6.637,6.637,0,0,0,14,8.657V64.768a6.637,6.637,0,0,0,6.657,6.657H63.342A6.637,6.637,0,0,0,70,64.768V8.657Zm-2.238.056V64.265a4.708,4.708,0,0,1-4.587,4.867H20.993a4.848,4.848,0,0,1-4.755-4.867V8.713a4.554,4.554,0,0,1,4.755-4.475H63.062a4.61,4.61,0,0,1,4.7,4.643ZM26.867,61.691,34.755,53.8l-7.888-7.888ZM34.7,27.622V11.175l-7.776.056s.056,25.678.112,25.566c23.944-9.343,22.209-2.685,22.209-2.685V61.747l-.056.112h7.329V34.167c0-15.161-21.818-6.545-21.818-6.545Zm10.629-6.6h8.28a40.592,40.592,0,0,0,5.986-9.51H51.034S48.293,17.664,45.328,21.021Z" transform="translate(965 778.31)" fill="#3d0692"/>
  </g>
</svg>
