<svg id="instagram_icon" xmlns="http://www.w3.org/2000/svg" xmlns:xlink="http://www.w3.org/1999/xlink" width="47.446" height="45.598" viewBox="0 0 47.446 45.598">
  <defs>
    <radialGradient id="radial-gradient" cx="0.065" cy="0.978" r="1.27" gradientTransform="translate(0)" gradientUnits="objectBoundingBox">
      <stop offset="0.09" stop-color="#fa8f21"/>
      <stop offset="0.78" stop-color="#d82d7e"/>
    </radialGradient>
    <radialGradient id="radial-gradient-2" cx="0.693" cy="0.946" r="1.117" gradientTransform="translate(0)" gradientUnits="objectBoundingBox">
      <stop offset="0.64" stop-color="#8c3aaa" stop-opacity="0"/>
      <stop offset="1" stop-color="#8c3aaa"/>
    </radialGradient>
  </defs>
  <path id="Path_86" data-name="Path 86" d="M12.031,45.436a16.54,16.54,0,0,1-5.374-.957A9.035,9.035,0,0,1,3.329,42.4a8.55,8.55,0,0,1-2.165-3.2,14.832,14.832,0,0,1-1-5.165C.028,31.107,0,30.227,0,22.8s.031-8.3.168-11.238a14.915,14.915,0,0,1,1-5.165A8.649,8.649,0,0,1,3.328,3.2a8.977,8.977,0,0,1,3.328-2.08A16.54,16.54,0,0,1,12.03.161C15.081.027,16,0,23.722,0s8.641.03,11.694.161a16.633,16.633,0,0,1,5.374.957A9,9,0,0,1,44.118,3.2a8.588,8.588,0,0,1,2.165,3.2,14.832,14.832,0,0,1,1,5.165c.14,2.934.168,3.812.168,11.238s-.028,8.3-.168,11.238a14.9,14.9,0,0,1-1,5.165,8.6,8.6,0,0,1-2.165,3.2,9.023,9.023,0,0,1-3.328,2.08,16.54,16.54,0,0,1-5.374.957c-3.05.134-3.967.161-11.694.161s-8.641-.026-11.691-.161" transform="translate(0)" fill="url(#radial-gradient)"/>
  <path id="Path_87" data-name="Path 87" d="M12.031,45.436a16.54,16.54,0,0,1-5.374-.957A9.035,9.035,0,0,1,3.329,42.4a8.55,8.55,0,0,1-2.165-3.2,14.832,14.832,0,0,1-1-5.165C.028,31.107,0,30.227,0,22.8s.031-8.3.168-11.238a14.915,14.915,0,0,1,1-5.165A8.649,8.649,0,0,1,3.328,3.2a8.977,8.977,0,0,1,3.328-2.08A16.54,16.54,0,0,1,12.03.161C15.081.027,16,0,23.722,0s8.641.03,11.694.161a16.633,16.633,0,0,1,5.374.957A9,9,0,0,1,44.118,3.2a8.588,8.588,0,0,1,2.165,3.2,14.832,14.832,0,0,1,1,5.165c.14,2.934.168,3.812.168,11.238s-.028,8.3-.168,11.238a14.9,14.9,0,0,1-1,5.165,8.6,8.6,0,0,1-2.165,3.2,9.023,9.023,0,0,1-3.328,2.08,16.54,16.54,0,0,1-5.374.957c-3.05.134-3.967.161-11.694.161s-8.641-.026-11.691-.161" transform="translate(0)" fill="url(#radial-gradient-2)"/>
  <path id="Path_88" data-name="Path 88" d="M447.215,455.642a5.69,5.69,0,1,1,5.681,5.374,5.534,5.534,0,0,1-5.681-5.374m-3.072,0a8.766,8.766,0,1,0,8.753-8.278,8.525,8.525,0,0,0-8.753,8.278m15.807-8.606A2.049,2.049,0,1,0,462,445.1h0a1.993,1.993,0,0,0-2.046,1.934m-13.94,21.729a9.893,9.893,0,0,1-3.165-.555A5.337,5.337,0,0,1,440.883,467a4.957,4.957,0,0,1-1.275-1.853,8.484,8.484,0,0,1-.586-2.994c-.083-1.7-.1-2.21-.1-6.515s.018-4.814.1-6.515a8.547,8.547,0,0,1,.586-2.994,4.993,4.993,0,0,1,1.275-1.854,5.293,5.293,0,0,1,1.961-1.206,9.885,9.885,0,0,1,3.165-.555c1.8-.078,2.337-.094,6.886-.094s5.09.017,6.889.094a9.96,9.96,0,0,1,3.165.555,5.319,5.319,0,0,1,1.961,1.206,4.978,4.978,0,0,1,1.275,1.854,8.484,8.484,0,0,1,.586,2.994c.083,1.7.1,2.21.1,6.515s-.017,4.814-.1,6.515a8.523,8.523,0,0,1-.586,2.994A4.978,4.978,0,0,1,464.91,467a5.337,5.337,0,0,1-1.961,1.206,9.885,9.885,0,0,1-3.165.555c-1.8.078-2.336.094-6.889.094s-5.09-.016-6.886-.094m-.141-29.147a13.129,13.129,0,0,0-4.137.749,8.43,8.43,0,0,0-3.02,1.859,7.842,7.842,0,0,0-1.966,2.856,11.268,11.268,0,0,0-.792,3.913c-.084,1.719-.1,2.268-.1,6.647s.019,4.928.1,6.647a11.267,11.267,0,0,0,.792,3.913,7.851,7.851,0,0,0,1.966,2.856,8.44,8.44,0,0,0,3.02,1.86,13.139,13.139,0,0,0,4.137.749c1.818.078,2.4.1,7.028.1s5.21-.018,7.028-.1a13.13,13.13,0,0,0,4.137-.749,8.446,8.446,0,0,0,3.02-1.86,7.868,7.868,0,0,0,1.966-2.856,11.235,11.235,0,0,0,.792-3.913c.083-1.72.1-2.268.1-6.647s-.019-4.928-.1-6.647a11.264,11.264,0,0,0-.792-3.913,7.9,7.9,0,0,0-1.966-2.856,8.4,8.4,0,0,0-3.018-1.859,13.111,13.111,0,0,0-4.137-.749c-1.818-.079-2.4-.1-7.027-.1s-5.211.018-7.029.1" transform="translate(-429.119 -432.732)" fill="#fff"/>
</svg>
