<svg xmlns="http://www.w3.org/2000/svg" width="45.59" height="45.59" viewBox="0 0 45.59 45.59">
  <g id="linkedin_icon" transform="translate(-4 -4)">
    <path id="Path_94" data-name="Path 94" d="M26.795,4a22.8,22.8,0,1,0,22.8,22.795A22.795,22.795,0,0,0,26.795,4Z" fill="#0288d1"/>
    <path id="Path_95" data-name="Path 95" d="M14,20.029h4.686V37.6H14Zm2.329-2.343H16.3A2.243,2.243,0,0,1,14,15.342,2.254,2.254,0,0,1,16.356,13a2.247,2.247,0,0,1,2.33,2.342A2.256,2.256,0,0,1,16.329,17.686ZM38.6,26.473a6.44,6.44,0,0,0-11.715-3.7V20.029H22.2V37.6h4.686V28.23a3.515,3.515,0,1,1,7.029,0V37.6H38.6Z" transform="translate(1.046 0.941)" fill="#fff"/>
  </g>
</svg>
