<svg xmlns="http://www.w3.org/2000/svg" xmlns:xlink="http://www.w3.org/1999/xlink" width="156" height="156" viewBox="0 0 156 156">
  <defs>
    <filter id="Rectangle_5" x="0" y="0" width="156" height="156" filterUnits="userSpaceOnUse">
      <feOffset dy="3" input="SourceAlpha"/>
      <feGaussianBlur stdDeviation="3" result="blur"/>
      <feFlood/>
      <feComposite operator="in" in2="blur"/>
      <feComposite in="SourceGraphic"/>
    </filter>
  </defs>
  <g id="MONGODB" transform="translate(-425 -423)">
    <g transform="matrix(1, 0, 0, 1, 425, 423)" filter="url(#Rectangle_5)">
      <path id="Rectangle_5-2" data-name="Rectangle 5" d="M0,0H120a18,18,0,0,1,18,18V138a0,0,0,0,1,0,0H18A18,18,0,0,1,0,120V0A0,0,0,0,1,0,0Z" transform="translate(9 6)" fill="#4f4f50"/>
    </g>
    <text id="MongoDB-2" data-name="MongoDB" transform="translate(460 550)" fill="#439934" font-size="20" font-family="Rajdhani-Medium, Rajdhani" font-weight="500" letter-spacing="0.05em"><tspan x="0" y="0">MONGO</tspan><tspan y="0" fill="#a9aa88">DB</tspan></text>
    <g id="mongodb-original" transform="translate(449.128 439.34)">
      <path id="Path_35" data-name="Path 35" d="M79.537,42.812a36.041,36.041,0,0,1,1.98,9.013,39.639,39.639,0,0,1-.649,11.438,2.634,2.634,0,0,1-.1.3,5.111,5.111,0,0,0-.762.008c-2.1.33-4.2.671-6.293,1.011-2.168.351-4.338.688-6.5,1.064-.767.132-1.716-.026-2.025,1.035-.009.029-.1.034-.148.05l.1-6.337-.107-15.29,1.01-.173c1.652-.27,3.3-.545,4.957-.808q2.959-.47,5.921-.924c.871-.136,1.743-.26,2.615-.39Z" transform="translate(-10.51 -14.707)" fill="#439934" fill-rule="evenodd"/>
      <path id="Path_36" data-name="Path 36" d="M52.44,84.561c-1.066-.916-2.168-1.792-3.19-2.755a39.458,39.458,0,0,1-11.5-18.641,30.164,30.164,0,0,1-1.026-6.174,34.868,34.868,0,0,1-.1-4.4A51.671,51.671,0,0,1,38.6,41.153l.062-.087a1.842,1.842,0,0,1,.325.443q1.664,4.9,3.3,9.8,5.162,15.415,10.325,30.83a2.456,2.456,0,0,0,.368.546l-.549,1.872Z" transform="translate(0 -14.062)" fill="#45a538" fill-rule="evenodd"/>
      <path id="Path_37" data-name="Path 37" d="M79.156,28.588c-.873.13-1.745.254-2.616.388q-2.961.459-5.921.924c-1.653.263-3.3.537-4.957.808l-1.01.173-.008-.659c-.033-.542-.091-1.083-.1-1.624-.044-3.454-.071-6.908-.113-10.361q-.04-3.243-.11-6.484c-.027-1.343-.056-2.686-.117-4.027-.033-.721-.149-1.437-.2-2.158-.026-.414.01-.832.018-1.248.515,1,1.019,2,1.548,2.994a19.143,19.143,0,0,0,3.369,3.979,44.378,44.378,0,0,1,10.209,17.3Z" transform="translate(-10.128 -0.483)" fill="#46a037" fill-rule="evenodd"/>
      <path id="Path_38" data-name="Path 38" d="M64.77,78.89c.051-.016.14-.021.148-.05.31-1.06,1.258-.9,2.025-1.035,2.164-.374,4.335-.712,6.5-1.064,2.1-.34,4.194-.682,6.293-1.011a5.027,5.027,0,0,1,.762-.008c-.392,1.4-.7,2.83-1.2,4.191a46.758,46.758,0,0,1-1.974,4.528A30.983,30.983,0,0,1,73.321,90.6a56.719,56.719,0,0,1-3.91,4.128c-.747.735-1.628,1.333-2.448,1.993l-.212-.145-.765-.654-.792-1.736a26.1,26.1,0,0,1-.879-6.2l.015-.354.108-1.53c.036-.522.084-1.043.106-1.567.081-1.88.152-3.76.226-5.64Z" transform="translate(-10.244 -26.864)" fill="#409433" fill-rule="evenodd"/>
      <path id="Path_39" data-name="Path 39" d="M56.95,59.495c-.074,1.88-.145,3.76-.225,5.641-.022.523-.07,1.045-.106,1.567l-.482.182c-1.071-3.154-2.143-6.274-3.191-9.4-1.734-5.176-3.447-10.359-5.178-15.536q-2.1-6.268-4.225-12.526a2.116,2.116,0,0,0-.389-.521l3.087-5.676a3.311,3.311,0,0,1,.313.554q2.144,6.338,4.267,12.684,2.758,8.256,5.5,16.517a6.654,6.654,0,0,0,.31.67l.422-.492-.105,6.338Z" transform="translate(-2.425 -7.469)" fill="#4faa41" fill-rule="evenodd"/>
      <path id="Path_40" data-name="Path 40" d="M41.946,32.227a2.141,2.141,0,0,1,.389.521q2.126,6.258,4.224,12.526C48.29,50.45,50,55.634,51.737,60.81c1.048,3.128,2.12,6.249,3.191,9.4l.482-.182-.108,1.53-.1.352c-.168,1.675-.309,3.353-.513,5.024-.1.837-.321,1.659-.487,2.488a2.479,2.479,0,0,1-.368-.546q-5.17-15.412-10.325-30.83-1.642-4.906-3.3-9.8a1.829,1.829,0,0,0-.325-.443l2.063-5.573Z" transform="translate(-1.216 -10.796)" fill="#4aa73c" fill-rule="evenodd"/>
      <path id="Path_41" data-name="Path 41" d="M58.864,50.215l-.422.492a6.718,6.718,0,0,1-.31-.67q-2.755-8.257-5.5-16.517-2.122-6.346-4.267-12.684a3.241,3.241,0,0,0-.313-.554l3.818-5.022a2.056,2.056,0,0,1,.354.485q1.59,4.654,3.154,9.317c.975,2.9,1.936,5.81,2.923,8.709.066.194.3.332.45.5l.008.659Q58.811,42.568,58.864,50.215Z" transform="translate(-4.234 -4.526)" fill="#57ae47" fill-rule="evenodd"/>
      <path id="Path_42" data-name="Path 42" d="M60.988,29.739c-.154-.164-.384-.3-.45-.5-.987-2.9-1.948-5.806-2.923-8.709q-1.566-4.662-3.154-9.317a2.057,2.057,0,0,0-.354-.485C55.347,9.517,56.55,8.258,57.842,7.1a5.175,5.175,0,0,0,2.113-3.763,2,2,0,0,1,.091-.324l.327.823c-.008.417-.045.833-.018,1.248.047.721.163,1.437.2,2.158.061,1.341.09,2.685.117,4.027q.065,3.242.11,6.484c.042,3.454.07,6.908.113,10.361.005.543.062,1.083.1,1.625Z" transform="translate(-6.472)" fill="#60b24f" fill-rule="evenodd"/>
      <path id="Path_43" data-name="Path 43" d="M62.277,102.678c.166-.829.384-1.652.487-2.488.2-1.67.346-3.349.513-5.024l.042-.006.042.007a26.1,26.1,0,0,0,.879,6.2,1.9,1.9,0,0,0-.327.442c-.458,1.292-.89,2.6-1.351,3.888a1.928,1.928,0,0,1-.362.469l-.471-1.618Z" transform="translate(-9.288 -34.051)" fill="#a9aa88" fill-rule="evenodd"/>
      <path id="Path_44" data-name="Path 44" d="M62.476,109.809a1.912,1.912,0,0,0,.362-.469c.461-1.292.893-2.594,1.351-3.888a1.879,1.879,0,0,1,.327-.442l.791,1.736a3.082,3.082,0,0,0-.459.669l-1.516,4.451c-.062.178-.276.3-.418.455l-.438-2.512Z" transform="translate(-9.565 -37.691)" fill="#b6b598" fill-rule="evenodd"/>
      <path id="Path_45" data-name="Path 45" d="M63.171,113.338c.143-.15.356-.277.418-.455l1.516-4.451a3.076,3.076,0,0,1,.459-.669l.766.654a1.346,1.346,0,0,0-.452,1.322l-.233.762a1.57,1.57,0,0,0-.311.393c-.529,1.515-1.034,3.038-1.567,4.553a2.1,2.1,0,0,1-.387.512q-.1-1.312-.209-2.622Z" transform="translate(-9.822 -38.708)" fill="#c2c1a7" fill-rule="evenodd"/>
      <path id="Path_46" data-name="Path 46" d="M63.5,117.564a2.153,2.153,0,0,0,.387-.512c.533-1.514,1.038-3.038,1.567-4.553a1.567,1.567,0,0,1,.311-.393l-.321,3.5c-.086.1-.21.185-.251.3-.363,1.018-.7,2.043-1.068,3.06a3.91,3.91,0,0,1-.331.591c-.1-.131-.278-.257-.286-.393-.032-.53-.01-1.064-.008-1.6Z" transform="translate(-9.939 -40.312)" fill="#cecdb7" fill-rule="evenodd"/>
      <path id="Path_47" data-name="Path 47" d="M63.969,121.6a3.972,3.972,0,0,0,.331-.591c.364-1.017.706-2.042,1.068-3.06.041-.115.166-.2.251-.3l.008,2.295-.768,1.97Z" transform="translate(-10.116 -42.361)" fill="#dbdac7" fill-rule="evenodd"/>
      <path id="Path_48" data-name="Path 48" d="M65.38,123.261l.768-1.97.158,2.33Z" transform="translate(-10.638 -43.707)" fill="#ebe9dc" fill-rule="evenodd"/>
      <path id="Path_49" data-name="Path 49" d="M67.443,110.123a1.344,1.344,0,0,1,.452-1.322l.212.145Z" transform="translate(-11.387 -39.091)" fill="#cecdb7" fill-rule="evenodd"/>
      <path id="Path_50" data-name="Path 50" d="M64.267,94.965l-.042-.007-.042.006.1-.352Z" transform="translate(-10.196 -33.848)" fill="#4faa41" fill-rule="evenodd"/>
    </g>
  </g>
</svg>
