<svg xmlns="http://www.w3.org/2000/svg" xmlns:xlink="http://www.w3.org/1999/xlink" width="156" height="156" viewBox="0 0 156 156">
  <defs>
    <filter id="Rectangle_8" x="0" y="0" width="156" height="156" filterUnits="userSpaceOnUse">
      <feOffset dy="3" input="SourceAlpha"/>
      <feGaussianBlur stdDeviation="3" result="blur"/>
      <feFlood/>
      <feComposite operator="in" in2="blur"/>
      <feComposite in="SourceGraphic"/>
    </filter>
  </defs>
  <g id="MYSQL" transform="translate(-929 -423)">
    <g transform="matrix(1, 0, 0, 1, 929, 423)" filter="url(#Rectangle_8)">
      <path id="Rectangle_8-2" data-name="Rectangle 8" d="M0,0H120a18,18,0,0,1,18,18V138a0,0,0,0,1,0,0H18A18,18,0,0,1,0,120V0A0,0,0,0,1,0,0Z" transform="translate(9 6)" fill="#4f4f50"/>
    </g>
    <text id="MySQL-2" data-name="MySQL" transform="translate(978 550)" fill="#e48e00" font-size="20" font-family="Rajdhani-Medium, Rajdhani" font-weight="500" letter-spacing="0.05em"><tspan x="0" y="0">MySQL</tspan></text>
    <g id="mysql-original-wordmark" transform="translate(951.171 422.257)">
      <path id="Path_51" data-name="Path 51" d="M2,87.183H5.413V73.707L10.7,85.455a2.907,2.907,0,0,0,3.15,1.925,2.868,2.868,0,0,0,3.117-1.925l5.283-11.748V87.183h3.412V73.73a2.05,2.05,0,0,0-1.608-2.275c-2.592-.809-4.332-.109-5.119,1.641L13.747,84.69,8.727,73.1c-.755-1.749-2.527-2.45-5.119-1.641A2.051,2.051,0,0,0,2,73.729V87.183Zm26.5-10.97h3.411v7.424c-.032.4.13,1.35,2,1.38.954.015,7.361,0,7.421,0V76.177h3.42c.016,0,0,12.056,0,12.106.018,2.974-3.689,3.619-5.4,3.669H28.571v-2.3c.018,0,10.768,0,10.794,0,2.2-.232,1.937-1.323,1.936-1.69v-.9H34.049c-3.374-.031-5.524-1.5-5.551-3.2,0-.155.074-7.583,0-7.658Z" transform="translate(0 -6.659)" fill="#00618a"/>
      <path id="Path_52" data-name="Path 52" d="M56.63,87.247h9.812a7.575,7.575,0,0,0,3.151-.655c1.476-.678,2.2-1.6,2.2-2.8V81.3c0-.984-.82-1.9-2.428-2.515a8.38,8.38,0,0,0-2.921-.5H62.306c-1.378,0-2.034-.415-2.2-1.334a.989.989,0,0,1-.032-.307V75.085a.918.918,0,0,1,.032-.284c.164-.7.525-.9,1.739-1.007l.328-.022h9.746V71.5H62.34a9.2,9.2,0,0,0-2.756.284c-2.034.635-2.921,1.641-2.921,3.391v1.99c0,1.532,1.74,2.844,4.66,3.151.329.021.656.044.984.044h3.544a1.929,1.929,0,0,1,.361.021c1.083.087,1.542.285,1.871.678a.814.814,0,0,1,.262.612V83.66a1.139,1.139,0,0,1-.492.809,2.42,2.42,0,0,1-1.444.482l-.361.022H56.63v2.274Zm36.45-3.959c0,2.34,1.739,3.652,5.25,3.916.328.022.656.043.984.043h8.893V84.973H99.249c-2,0-2.756-.5-2.756-1.707V71.5H93.081V83.288Zm-19.112.118V75.295c0-2.06,1.447-3.31,4.308-3.7a6.477,6.477,0,0,1,.92-.066h6.478a6.921,6.921,0,0,1,.953.066c2.861.395,4.309,1.644,4.309,3.7v8.111a2.961,2.961,0,0,1-2.031,3.15l3.362,3.034H88.3l-2.72-2.455-2.738.174H79.2a7.538,7.538,0,0,1-2.005-.285c-2.17-.591-3.223-1.732-3.223-3.617Zm3.683-.2a1.485,1.485,0,0,0,.066.351c.2.943,1.086,1.469,2.433,1.469h3.1L80.4,82.458h3.963L86.848,84.7a1.618,1.618,0,0,0,.865-1.1,1.136,1.136,0,0,0,.032-.329V75.494a1.068,1.068,0,0,0-.032-.307c-.2-.877-1.086-1.381-2.4-1.381H80.149c-1.512,0-2.5.658-2.5,1.688v7.715Z" transform="translate(-9.251 -6.723)" fill="#e48e00"/>
      <path id="Path_53" data-name="Path 53" d="M115.116,61a12.011,12.011,0,0,0-5.07.715c-.39.164-1.01.169-1.073.656.213.225.247.56.417.836a6.579,6.579,0,0,0,1.372,1.61c.537.406,1.092.841,1.67,1.194,1.026.626,2.172.983,3.161,1.61.582.37,1.16.836,1.729,1.253.282.205.469.527.836.655v-.059c-.192-.244-.242-.58-.418-.836l-.776-.776a12.7,12.7,0,0,0-2.744-2.624c-.816-.586-2.641-1.377-2.982-2.327l-.06-.059a13.188,13.188,0,0,0,1.789-.418c.9-.241,1.7-.179,2.625-.418l1.253-.359v-.238c-.468-.48-.8-1.116-1.312-1.551a38.4,38.4,0,0,0-4.294-3.222c-.832-.525-1.861-.866-2.744-1.312-.3-.15-.817-.228-1.014-.478a12.574,12.574,0,0,1-1.074-2.028q-1.147-2.231-2.147-4.534a24.343,24.343,0,0,0-1.312-2.982,26.342,26.342,0,0,0-10.141-9.783,12.144,12.144,0,0,0-3.34-1.073l-1.969-.12A10.531,10.531,0,0,1,86.3,33.44c-1.5-.945-5.334-3-6.443-.3-.7,1.706,1.047,3.371,1.67,4.235a12.836,12.836,0,0,1,1.312,1.968c.206.449.241.9.418,1.372a31.413,31.413,0,0,0,1.371,3.519,12.453,12.453,0,0,0,.954,1.611c.219.3.6.432.655.895a7.3,7.3,0,0,0-.6,1.968,11.425,11.425,0,0,0,.776,8.769c.416.669,1.4,2.1,2.744,1.551,1.179-.48.916-1.968,1.253-3.281.076-.3.029-.516.179-.715v.06l1.074,2.147a14.616,14.616,0,0,0,3.4,3.519c.62.468,1.108,1.278,1.909,1.551v-.061h-.059c-.156-.242-.4-.341-.6-.537a13.556,13.556,0,0,1-1.371-1.551,36.27,36.27,0,0,1-2.923-4.772c-.418-.8-.781-1.688-1.133-2.505-.136-.315-.135-.792-.417-.954a11.847,11.847,0,0,0-1.253,1.789,15.345,15.345,0,0,0-.715,3.936l-.12.059c-.831-.2-1.123-1.056-1.432-1.789a11.271,11.271,0,0,1-.238-6.978c.178-.553.981-2.293.655-2.8-.155-.509-.668-.8-.954-1.194a9.322,9.322,0,0,1-.954-1.67c-.64-1.446-.938-3.07-1.61-4.533a13.253,13.253,0,0,0-1.312-2.028,11.933,11.933,0,0,1-1.432-2.028c-.136-.3-.321-.77-.12-1.074a.475.475,0,0,1,.359-.358c.346-.267,1.309.089,1.67.238a14.6,14.6,0,0,1,2.566,1.312c.389.258.782.757,1.253.895h.537c.84.193,1.781.059,2.565.3a15.51,15.51,0,0,1,3.758,1.79,23.275,23.275,0,0,1,8.172,8.948c.309.594.444,1.16.715,1.789.55,1.269,1.243,2.576,1.789,3.818a17.818,17.818,0,0,0,1.85,3.519c.405.542,1.972.832,2.684,1.133a15.935,15.935,0,0,1,1.789.715c.9.545,1.778,1.194,2.625,1.79.423.3,1.724.954,1.789,1.494ZM88.452,38.273a4.256,4.256,0,0,0-1.074.12v.059h.06a8.07,8.07,0,0,0,.835,1.074l.6,1.253.059-.059a1.455,1.455,0,0,0,.537-1.312c-.149-.156-.17-.351-.3-.537-.169-.249-.5-.389-.715-.6Z" transform="translate(-13.158 0)" fill="#00618a"/>
    </g>
  </g>
</svg>
