<svg xmlns="http://www.w3.org/2000/svg" xmlns:xlink="http://www.w3.org/1999/xlink" width="156" height="156" viewBox="0 0 156 156">
  <defs>
    <filter id="Rectangle_6" x="0" y="0" width="156" height="156" filterUnits="userSpaceOnUse">
      <feOffset dy="3" input="SourceAlpha"/>
      <feGaussianBlur stdDeviation="3" result="blur"/>
      <feFlood/>
      <feComposite operator="in" in2="blur"/>
      <feComposite in="SourceGraphic"/>
    </filter>
  </defs>
  <g id="NODEJS" transform="translate(-677 -423)">
    <g transform="matrix(1, 0, 0, 1, 677, 423)" filter="url(#Rectangle_6)">
      <path id="Rectangle_6-2" data-name="Rectangle 6" d="M0,0H120a18,18,0,0,1,18,18V138a0,0,0,0,1,0,0H18A18,18,0,0,1,0,120V0A0,0,0,0,1,0,0Z" transform="translate(9 6)" fill="#4f4f50"/>
    </g>
    <text id="NodeJS-2" data-name="NodeJS" transform="translate(720 550)" fill="#83cd29" font-size="20" font-family="Rajdhani-Medium, Rajdhani" font-weight="500" letter-spacing="0.05em"><tspan x="0" y="0">NODEJS</tspan></text>
    <path id="nodejs-original" d="M72.337,19.793,45.589,4.262a5.768,5.768,0,0,0-5.583,0L12.973,19.793A5.811,5.811,0,0,0,10,24.689V55.71a5.86,5.86,0,0,0,3,4.9l7.142,4.057c3.414,1.681,4.62,1.681,6.174,1.681,5.054,0,7.942-3.056,7.942-8.388V27.338c0-.432-.225-1.076-.65-1.076H30.2c-.432,0-1.4.644-1.4,1.075V57.963c0,2.363-2.138,4.715-6.132,2.717l-7.38-4.254a.838.838,0,0,1-.439-.716V24.689c0-.292.337-.586.6-.736l26.946-15.5a.944.944,0,0,1,.873,0l26.617,15.5c.255.153.165.438.165.739V55.71c0,.3.111.584-.141.727L43.167,71.95a.76.76,0,0,1-.765,0l-6.858-4.094a.661.661,0,0,0-.651-.052,17.851,17.851,0,0,1-4.05,1.846c-.44.153-1.09.42.249,1.17l8.976,5.31a5.657,5.657,0,0,0,5.649,0L72.336,60.613a5.465,5.465,0,0,0,2.566-4.9V24.689a5.447,5.447,0,0,0-2.565-4.9Zm-21.145,31c-7.113,0-8.679-1.962-9.2-5.5-.061-.381-.384-.836-.772-.836H37.742c-.43,0-.776.522-.776.95,0,4.529,2.462,10.016,14.226,10.016,8.515,0,13.4-3.309,13.4-9.165,0-5.806-3.923-7.33-12.181-8.423-8.347-1.1-9.2-1.661-9.2-3.616,0-1.612.718-3.762,6.9-3.762,5.523,0,7.558,1.185,8.4,4.908a.766.766,0,0,0,.752.6h3.49a.8.8,0,0,0,.57-.24.785.785,0,0,0,.2-.594c-.54-6.41-4.8-9.4-13.412-9.4-7.661,0-12.232,3.235-12.232,8.659,0,5.882,4.547,7.508,11.9,8.235,8.8.863,9.482,2.148,9.482,3.879,0,3.006-2.413,4.286-8.073,4.286Z" transform="translate(712.549 442.368)" fill="#83cd29"/>
  </g>
</svg>
