<svg xmlns="http://www.w3.org/2000/svg" xmlns:xlink="http://www.w3.org/1999/xlink" width="156" height="156" viewBox="0 0 156 156">
  <defs>
    <filter id="Rectangle_14" x="0" y="0" width="156" height="156" filterUnits="userSpaceOnUse">
      <feOffset dy="3" input="SourceAlpha"/>
      <feGaussianBlur stdDeviation="3" result="blur"/>
      <feFlood/>
      <feComposite operator="in" in2="blur"/>
      <feComposite in="SourceGraphic"/>
    </filter>
  </defs>
  <g id="NPM" transform="translate(-1433 -754)">
    <g transform="matrix(1, 0, 0, 1, 1433, 754)" filter="url(#Rectangle_14)">
      <path id="Rectangle_14-2" data-name="Rectangle 14" d="M0,0H120a18,18,0,0,1,18,18V138a0,0,0,0,1,0,0H18A18,18,0,0,1,0,120V0A0,0,0,0,1,0,0Z" transform="translate(9 6)" fill="#4f4f50"/>
    </g>
    <text id="NPM-2" data-name="NPM" transform="translate(1492 881)" fill="#cb3837" font-size="20" font-family="Rajdhani-Medium, Rajdhani" font-weight="500" letter-spacing="0.05em"><tspan x="0" y="0">NPM</tspan></text>
    <path id="npm-original-wordmark" d="M2,38.5H97.353V72.112H49.677v5.606H28.484V72.112H2ZM7.3,66.514h10.6V49.7h5.3v16.81h5.3V44.106H7.3ZM33.782,44.106V72.112h10.6v-5.6h10.6V44.106Zm10.6,5.606h5.3v11.2h-5.3Zm15.895-5.606V66.514h10.6V49.7h5.3v16.81h5.3V49.7h5.3v16.81h5.3V44.106Z" transform="translate(1461.324 756.914)" fill="#cb3837"/>
  </g>
</svg>
