<svg xmlns="http://www.w3.org/2000/svg" xmlns:xlink="http://www.w3.org/1999/xlink" width="156" height="156" viewBox="0 0 156 156">
  <defs>
    <filter id="Rectangle_18" x="0" y="0" width="156" height="156" filterUnits="userSpaceOnUse">
      <feOffset dy="3" input="SourceAlpha"/>
      <feGaussianBlur stdDeviation="3" result="blur"/>
      <feFlood/>
      <feComposite operator="in" in2="blur"/>
      <feComposite in="SourceGraphic"/>
    </filter>
  </defs>
  <g id="PHOTOSHOP" transform="translate(-425 -754)">
    <g transform="matrix(1, 0, 0, 1, 425, 754)" filter="url(#Rectangle_18)">
      <path id="Rectangle_18-2" data-name="Rectangle 18" d="M0,0H120a18,18,0,0,1,18,18V138a0,0,0,0,1,0,0H18A18,18,0,0,1,0,120V0A0,0,0,0,1,0,0Z" transform="translate(9 6)" fill="#4f4f50"/>
    </g>
    <g id="adobe-photoshop-2" transform="translate(466.033 778.193)">
      <path id="Path_13" data-name="Path 13" d="M13.092,0H60.841A13.227,13.227,0,0,1,73.934,13.378v46.9A13.227,13.227,0,0,1,60.841,73.659H13.092A13.227,13.227,0,0,1,0,60.281v-46.9A13.227,13.227,0,0,1,13.092,0Z" fill="#001e36"/>
      <g id="Group_6" data-name="Group 6" transform="translate(16.635 19.073)">
        <path id="Path_14" data-name="Path 14" d="M54,91.723v-31.7c0-.216.092-.339.308-.339.524,0,1.017,0,1.725-.031.739-.031,1.509-.031,2.341-.062s1.725-.031,2.68-.062,1.879-.031,2.8-.031a18.113,18.113,0,0,1,6.346.955,11,11,0,0,1,4.128,2.526,9.808,9.808,0,0,1,2.249,3.512,11.791,11.791,0,0,1,.709,4,11.013,11.013,0,0,1-1.848,6.562,10.554,10.554,0,0,1-4.96,3.758,19.965,19.965,0,0,1-6.931,1.047c-.739,0-1.232,0-1.54-.031s-.739-.031-1.325-.031v9.889a.383.383,0,0,1-.339.431H54.37c-.246,0-.37-.123-.37-.4ZM60.716,65.63V75.981c.431.031.832.062,1.2.062H63.55a11.507,11.507,0,0,0,3.543-.555,5.3,5.3,0,0,0,2.526-1.633,4.76,4.76,0,0,0,.955-3.173,5.07,5.07,0,0,0-.709-2.742,4.467,4.467,0,0,0-2.156-1.756,9.04,9.04,0,0,0-3.635-.616c-.8,0-1.509,0-2.095.031a7.052,7.052,0,0,0-1.263.031Zm35.8,8.472a10.9,10.9,0,0,0-2.957-1.047,16.239,16.239,0,0,0-3.45-.4,6.2,6.2,0,0,0-1.848.216,1.582,1.582,0,0,0-.955.616,1.633,1.633,0,0,0-.246.832,1.37,1.37,0,0,0,.308.8,3.476,3.476,0,0,0,1.047.832c.709.37,1.448.709,2.187,1.017a22.312,22.312,0,0,1,4.744,2.249,7.168,7.168,0,0,1,2.434,2.557,6.65,6.65,0,0,1,.709,3.173,7.168,7.168,0,0,1-1.2,4.1,7.719,7.719,0,0,1-3.45,2.742,14.115,14.115,0,0,1-5.576.986,21.219,21.219,0,0,1-4.19-.4,12.426,12.426,0,0,1-3.142-.986.606.606,0,0,1-.339-.585v-5.36a.335.335,0,0,1,.123-.277.235.235,0,0,1,.277.031,13.187,13.187,0,0,0,3.82,1.509,14.341,14.341,0,0,0,3.635.462A5.88,5.88,0,0,0,91,86.732a1.431,1.431,0,0,0,.832-1.294,1.632,1.632,0,0,0-.739-1.232,13.065,13.065,0,0,0-3.019-1.448A18.848,18.848,0,0,1,83.7,80.54a7.977,7.977,0,0,1-2.341-2.618,6.61,6.61,0,0,1-.709-3.142,7.245,7.245,0,0,1,1.047-3.727,7.593,7.593,0,0,1,3.235-2.834,11.946,11.946,0,0,1,5.453-1.078,26.557,26.557,0,0,1,3.82.277,10.839,10.839,0,0,1,2.649.709.541.541,0,0,1,.308.277,1.547,1.547,0,0,1,.062.37v5.021a.379.379,0,0,1-.154.308.821.821,0,0,1-.555,0Z" transform="translate(-54 -59.5)" fill="#31a8ff"/>
      </g>
    </g>
    <text id="Photoshop-2" data-name="Photoshop" transform="translate(451 881)" fill="#31a8ff" font-size="20" font-family="Rajdhani-Medium, Rajdhani" font-weight="500" letter-spacing="0.05em"><tspan x="0" y="0">PHOTOSHOP</tspan></text>
  </g>
</svg>
