<svg xmlns="http://www.w3.org/2000/svg" xmlns:xlink="http://www.w3.org/1999/xlink" width="156" height="156" viewBox="0 0 156 156">
  <defs>
    <filter id="Rectangle_15" x="0" y="0" width="156" height="156" filterUnits="userSpaceOnUse">
      <feOffset dy="3" input="SourceAlpha"/>
      <feGaussianBlur stdDeviation="3" result="blur"/>
      <feFlood/>
      <feComposite operator="in" in2="blur"/>
      <feComposite in="SourceGraphic"/>
    </filter>
  </defs>
  <g id="POSTMAN" transform="translate(-1181 -754)">
    <g transform="matrix(1, 0, 0, 1, 1181, 754)" filter="url(#Rectangle_15)">
      <path id="Rectangle_15-2" data-name="Rectangle 15" d="M0,0H120a18,18,0,0,1,18,18V138a0,0,0,0,1,0,0H18A18,18,0,0,1,0,120V0A0,0,0,0,1,0,0Z" transform="translate(9 6)" fill="#4f4f50"/>
    </g>
    <text id="Postman-2" data-name="Postman" transform="translate(1217 881)" fill="#ff6c37" font-size="20" font-family="Rajdhani-Medium, Rajdhani" font-weight="500" letter-spacing="0.05em"><tspan x="0" y="0">POSTMAN</tspan></text>
    <g id="postman-3" data-name="postman" transform="translate(1223.399 780.313)">
      <path id="Path_54" data-name="Path 54" d="M63.779,13.494a36.215,36.215,0,0,0-49.94-6.255A34.135,34.135,0,0,0,7.428,55.931,36.215,36.215,0,0,0,57.37,62.176a34.136,34.136,0,0,0,6.408-48.682Z" transform="translate(0 0)" fill="#ff6c37"/>
      <path id="Path_55" data-name="Path 55" d="M42.793,20.388,29.3,33.988l-3.813-3.92c13.28-13.28,14.613-12.08,17.307-9.68Z" transform="translate(3.932 2.094)" fill="#fff"/>
      <path id="Path_56" data-name="Path 56" d="M29.3,34.36a.48.48,0,0,1-.32-.133l-3.84-3.84a.48.48,0,0,1,0-.667c13.093-13.093,14.88-12.48,17.973-9.68a.427.427,0,0,1,.16.347.375.375,0,0,1-.133.347L29.647,34.228a.506.506,0,0,1-.347.133Zm-3.147-4.293L29.3,33.214l12.8-12.8a2.88,2.88,0,0,0-3.787-.64C35.993,20.814,32.26,23.987,26.153,30.067Z" transform="translate(3.939 2.077)" fill="#ff6c37"/>
      <path id="Path_57" data-name="Path 57" d="M33.167,37.748l-3.68-3.76L42.98,20.654c3.627,3.547-1.76,9.467-9.813,17.093Z" transform="translate(4.304 2.388)" fill="#fff"/>
      <path id="Path_58" data-name="Path 58" d="M33.167,38.228a.56.56,0,0,1-.32-.133l-3.76-3.68a.56.56,0,0,1,0-.427.517.517,0,0,1,0-.347L42.58,20.148a.506.506,0,0,1,.693,0,4.136,4.136,0,0,1,1.333,3.173c0,3.6-4.107,8.133-11.093,14.747a.56.56,0,0,1-.347.16Zm-2.987-4.24L33.193,37c5.333-5.04,10.427-10.24,10.453-13.76a3.04,3.04,0,0,0-.693-2.053Z" transform="translate(4.32 2.37)" fill="#ff6c37"/>
      <path id="Path_59" data-name="Path 59" d="M25.593,30.148l2.667,2.667a.16.16,0,0,1,0,.24l-5.627,1.2a.533.533,0,0,1-.48-.907l3.28-3.253a.264.264,0,0,1,.16.053Z" transform="translate(2.746 2.728)" fill="#fff"/>
      <path id="Path_60" data-name="Path 60" d="M22.5,34.788a1.04,1.04,0,0,1-.88-.507,1.014,1.014,0,0,1,.187-1.2L25.06,29.8a.64.64,0,0,1,.853,0l2.667,2.667a.588.588,0,0,1,.16.587.618.618,0,0,1-.453.427l-5.627,1.2Zm2.987-4.053-3.013,3.013,4.987-1.067ZM25.727,30.495Z" transform="translate(2.73 2.731)" fill="#ff6c37"/>
      <path id="Path_61" data-name="Path 61" d="M49.967,12.894a5.173,5.173,0,1,0-.933,8.16l-3.627-3.627Z" transform="translate(5.373 1.157)" fill="#fff"/>
      <path id="Path_62" data-name="Path 62" d="M46.367,22.28a5.659,5.659,0,0,1-3.956-9.626,5.71,5.71,0,0,1,8,0,.453.453,0,0,1,.16.347.46.46,0,0,1-.16.347l-4.32,4.08,3.28,3.227a.45.45,0,0,1,.133.4.48.48,0,0,1-.213.347,5.8,5.8,0,0,1-2.933.88Zm0-10.347a4.686,4.686,0,1,0,1.867,8.987l-3.147-3.147a.427.427,0,0,1,0-.667l4.16-4.187a4.785,4.785,0,0,0-2.88-.987Z" transform="translate(5.419 1.133)" fill="#ff6c37"/>
      <path id="Path_63" data-name="Path 63" d="M50.047,12.974l-4.56,4.533,3.627,3.627a5.52,5.52,0,0,0,1.013-.747,5.333,5.333,0,0,0-.08-7.413Z" transform="translate(5.659 1.26)" fill="#fff"/>
      <path id="Path_64" data-name="Path 64" d="M49.033,21.534a.4.4,0,0,1-.32-.133l-3.627-3.627a.427.427,0,0,1,0-.667l4.533-4.453a.48.48,0,0,1,.8,0,5.6,5.6,0,0,1,0,8,4.88,4.88,0,0,1-1.067.853.43.43,0,0,1-.32.027ZM46.1,17.428l3.013,3.013a5.121,5.121,0,0,0,.587-.48,4.72,4.72,0,0,0,1.387-3.333,4.58,4.58,0,0,0-1.147-3.04Z" transform="translate(5.695 1.229)" fill="#ff6c37"/>
      <path id="Path_65" data-name="Path 65" d="M43.353,20.948a1.948,1.948,0,0,0-2.667,0L28.607,33l2,2.027,12.773-11.2a1.977,1.977,0,0,0-.027-2.88Z" transform="translate(4.239 2.242)" fill="#fff"/>
      <path id="Path_66" data-name="Path 66" d="M30.5,35.508a.48.48,0,0,1-.32-.133l-2.027-2.027a.48.48,0,0,1,0-.667l12.08-12.027a2.454,2.454,0,0,1,4.187,1.813,2.51,2.51,0,0,1-.827,1.76L30.82,35.427a.455.455,0,0,1-.32.08ZM29.087,33l1.333,1.36L42.953,23.453a1.473,1.473,0,0,0,.507-1.067,1.432,1.432,0,0,0-.453-1.093,1.493,1.493,0,0,0-2.107,0Z" transform="translate(4.24 2.232)" fill="#ff6c37"/>
      <path id="Path_67" data-name="Path 67" d="M19.247,46.734a.27.27,0,0,0,0,.32l.533,2.32a.688.688,0,0,1-.332.7A.65.65,0,0,1,18.686,50l-3.653-3.52L26.42,35h3.947l2.667,2.667a60.54,60.54,0,0,1-13.787,9.067Z" transform="translate(2.354 3.886)" fill="#fff"/>
      <path id="Path_68" data-name="Path 68" d="M19.007,50.654a1.126,1.126,0,0,1-.8-.347l-3.493-3.493a.427.427,0,0,1,0-.667L26.18,34.654a.45.45,0,0,1,.24-.133h3.973a.48.48,0,0,1,.32,0l2.667,2.667a.515.515,0,0,1-.027.72l-.213.187a65.33,65.33,0,0,1-13.68,8.773l.507,2.16a1.15,1.15,0,0,1-1.093,1.413Zm-3.253-4.187L18.9,49.64a.142.142,0,1,0,.213-.187l-.533-2.32a.744.744,0,0,1,.4-.853,65.56,65.56,0,0,0,13.333-8.587l-2.187-2.187H26.553ZM19.594,46.947Z" transform="translate(2.328 3.91)" fill="#ff6c37"/>
      <path id="Path_69" data-name="Path 69" d="M12.287,49.214l2.667-2.667,4.107,4.107L12.528,50.2a.534.534,0,0,1-.24-.986Z" transform="translate(1.522 4.214)" fill="#fff"/>
      <path id="Path_70" data-name="Path 70" d="M19.14,51.054,12.633,50.6a1.03,1.03,0,0,1-.854-.653,1.019,1.019,0,0,1,.214-1.054l2.667-2.667a.48.48,0,0,1,.667,0l4.08,4.08a.452.452,0,0,1,0,.533.507.507,0,0,1-.267.213Zm-6.507-1.493,5.333.347-2.933-2.747Z" transform="translate(1.501 4.233)" fill="#ff6c37"/>
      <path id="Path_71" data-name="Path 71" d="M30.74,35.322l-5.387.827,3.12-3.093Z" transform="translate(3.116 2.943)" fill="#fff"/>
      <path id="Path_72" data-name="Path 72" d="M25.353,36.654a.456.456,0,0,1-.427-.267.45.45,0,0,1,0-.533l3.093-3.12a.506.506,0,0,1,.693,0L30.98,35a.45.45,0,0,1,0,.48.47.47,0,0,1-.373.347l-5.333.827Zm3.12-2.907L26.74,35.48l2.987-.453Z" transform="translate(3.096 2.949)" fill="#ff6c37"/>
      <path id="Path_73" data-name="Path 73" d="M30.74,35.32l-3.76.48a.48.48,0,0,1-.453-.8l1.947-1.947Z" transform="translate(3.187 2.927)" fill="#fff"/>
      <path id="Path_74" data-name="Path 74" d="M26.873,36.308a.987.987,0,0,1-.853-.507.96.96,0,0,1,.16-1.147l1.947-1.947a.506.506,0,0,1,.693,0l2.267,2.267a.48.48,0,0,1-.293.827l-3.733.48Zm0-.987,2.827-.347-1.253-1.253-1.6,1.6Zm23.2-19.28a.4.4,0,0,0-.507-.16.37.37,0,0,0-.186.22.377.377,0,0,0,.026.287,1.147,1.147,0,0,1-.133,1.2.338.338,0,0,0-.1.253.38.38,0,0,0,.1.253.29.29,0,0,0,.213,0,.35.35,0,0,0,.347-.107,1.84,1.84,0,0,0,.24-1.947Z" transform="translate(4.705 1.974)" fill="#ff6c37"/>
    </g>
  </g>
</svg>
