<svg xmlns="http://www.w3.org/2000/svg" xmlns:xlink="http://www.w3.org/1999/xlink" width="156" height="156" viewBox="0 0 156 156">
  <defs>
    <filter id="Rectangle_13" x="0" y="0" width="156" height="156" filterUnits="userSpaceOnUse">
      <feOffset dy="3" input="SourceAlpha"/>
      <feGaussianBlur stdDeviation="3" result="blur"/>
      <feFlood/>
      <feComposite operator="in" in2="blur"/>
      <feComposite in="SourceGraphic"/>
    </filter>
  </defs>
  <g id="REACT" transform="translate(-1433 -235)">
    <g transform="matrix(1, 0, 0, 1, 1433, 235)" filter="url(#Rectangle_13)">
      <path id="Rectangle_13-2" data-name="Rectangle 13" d="M0,0H120a18,18,0,0,1,18,18V138a0,0,0,0,1,0,0H18A18,18,0,0,1,0,120V0A0,0,0,0,1,0,0Z" transform="translate(9 6)" fill="#4f4f50"/>
    </g>
    <text id="React-2" data-name="React" transform="translate(1484 362)" fill="#61dafb" font-size="20" font-family="Rajdhani-Medium, Rajdhani" font-weight="500" letter-spacing="0.05em"><tspan x="0" y="0">REACT</tspan></text>
    <g id="react-original" transform="translate(1468.573 250.9)">
      <ellipse id="Ellipse_7" data-name="Ellipse 7" cx="7.471" cy="7.505" rx="7.471" ry="7.505" transform="translate(34.956 37.397)" fill="#61dafb"/>
      <path id="Path_75" data-name="Path 75" d="M70.806,32.526c-1.442-.527-2.949-1.053-4.522-1.514.393-1.58.721-3.16.983-4.674,1.376-8.69-.131-14.813-4.326-17.183A8.112,8.112,0,0,0,58.746,8.1c-4.588,0-10.421,3.424-16.319,9.151C36.529,11.524,30.7,8.1,26.108,8.1a8.112,8.112,0,0,0-4.194,1.053c-4.194,2.436-5.7,8.559-4.326,17.183.262,1.514.59,3.094.983,4.674a45.561,45.561,0,0,0-4.522,1.514C5.857,35.686,1.4,40.031,1.4,44.9S5.922,54.12,14.049,57.28c1.442.527,2.949,1.053,4.522,1.514-.393,1.58-.721,3.16-.983,4.674-1.376,8.69.131,14.813,4.326,17.183a8.112,8.112,0,0,0,4.194,1.053c4.653,0,10.486-3.424,16.319-9.151,5.9,5.728,11.731,9.151,16.319,9.151a8.112,8.112,0,0,0,4.194-1.053c4.194-2.436,5.7-8.559,4.326-17.183-.262-1.514-.59-3.094-.983-4.674a45.562,45.562,0,0,0,4.522-1.514C79,54.12,83.455,49.775,83.455,44.9S79,35.686,70.806,32.526Zm-9.7-20.08c2.687,1.58,3.6,6.452,2.49,13.365a39.8,39.8,0,0,1-.918,4.345,77.536,77.536,0,0,0-10.814-1.646,94.918,94.918,0,0,0-6.816-8.559c4.85-4.806,9.765-8.1,13.763-8.1a4.412,4.412,0,0,1,2.294.593Zm-7.34,39.041c-1.18,2.107-2.556,4.214-4,6.32-2.425.2-4.85.263-7.34.263-2.556,0-4.981-.066-7.34-.263q-2.163-3.16-3.932-6.32c-1.245-2.173-2.425-4.411-3.474-6.584,1.049-2.173,2.228-4.411,3.474-6.584,1.18-2.107,2.556-4.214,4-6.32,2.425-.2,4.85-.263,7.34-.263,2.556,0,4.981.066,7.34.263q2.163,3.16,3.932,6.32c1.245,2.173,2.425,4.411,3.474,6.584C56.125,47.075,55.011,49.248,53.765,51.487Zm5.44-2.173c.983,2.3,1.77,4.543,2.49,6.781a71.728,71.728,0,0,1-7.078,1.251c.786-1.251,1.638-2.568,2.359-3.95.786-1.383,1.507-2.765,2.228-4.082ZM42.427,67.156c-1.573-1.712-3.08-3.555-4.522-5.464,1.507.066,3.015.132,4.522.132s3.015-.066,4.522-.132C45.508,63.6,44,65.444,42.427,67.156ZM30.237,57.28a71.727,71.727,0,0,1-7.078-1.251c.721-2.173,1.507-4.477,2.49-6.781.721,1.317,1.442,2.7,2.228,4.016.786,1.448,1.573,2.7,2.359,4.016ZM25.649,40.492c-.983-2.3-1.77-4.543-2.49-6.781a71.728,71.728,0,0,1,7.078-1.251c-.786,1.251-1.638,2.568-2.359,3.95C27.091,37.792,26.37,39.175,25.649,40.492ZM42.427,22.65c1.573,1.712,3.08,3.555,4.522,5.464-1.507-.066-3.015-.132-4.522-.132s-3.015.066-4.522.132C39.347,26.205,40.854,24.362,42.427,22.65Zm14.55,13.826-2.359-3.95A71.727,71.727,0,0,1,61.7,33.776c-.721,2.173-1.507,4.477-2.49,6.781C58.484,39.175,57.763,37.792,56.977,36.476ZM21.258,25.81c-1.114-6.913-.2-11.785,2.49-13.365a4.412,4.412,0,0,1,2.294-.593c3.932,0,8.848,3.226,13.763,8.1a86.476,86.476,0,0,0-6.816,8.559,88.728,88.728,0,0,0-10.814,1.646c-.393-1.514-.655-2.963-.918-4.345ZM5.07,44.9c0-3.094,3.736-6.386,10.29-8.822A39.171,39.171,0,0,1,19.554,34.7a96.23,96.23,0,0,0,3.932,10.271,83.192,83.192,0,0,0-3.932,10.2C10.51,52.54,5.07,48.59,5.07,44.9ZM23.749,77.36c-2.687-1.58-3.6-6.452-2.49-13.365a39.8,39.8,0,0,1,.918-4.345A77.535,77.535,0,0,0,32.99,61.3a94.919,94.919,0,0,0,6.816,8.559c-4.85,4.806-9.765,8.1-13.763,8.1A4.412,4.412,0,0,1,23.749,77.36ZM63.6,64c1.114,6.913.2,11.785-2.49,13.365a4.412,4.412,0,0,1-2.294.593c-3.932,0-8.848-3.226-13.763-8.1A86.478,86.478,0,0,0,51.865,61.3,88.728,88.728,0,0,0,62.679,59.65C63.072,61.165,63.334,62.613,63.6,64Zm5.9-10.271A39.167,39.167,0,0,1,65.3,55.108a96.228,96.228,0,0,0-3.932-10.271,83.19,83.19,0,0,0,3.932-10.2c9.044,2.633,14.484,6.584,14.484,10.271C79.784,48,75.983,51.289,69.495,53.725Z" fill="#61dafb"/>
    </g>
  </g>
</svg>
