<svg xmlns="http://www.w3.org/2000/svg" width="46.301" height="37.295" viewBox="0 0 46.301 37.295">
  <path id="twitter_icon" d="M52.3,13.41A19.262,19.262,0,0,1,46.836,14.9a9.49,9.49,0,0,0,4.181-5.219,19.07,19.07,0,0,1-6.035,2.284A9.474,9.474,0,0,0,28.8,20.561,27.071,27.071,0,0,1,9.226,10.718a9.3,9.3,0,0,0-1.286,4.74,9.394,9.394,0,0,0,4.225,7.84,9.672,9.672,0,0,1-4.307-1.175v.111a9.443,9.443,0,0,0,7.617,9.235,9.447,9.447,0,0,1-2.5.338,10.093,10.093,0,0,1-1.79-.174,9.517,9.517,0,0,0,8.871,6.541,19.194,19.194,0,0,1-11.8,4.03A18.79,18.79,0,0,1,6,42.07,27.147,27.147,0,0,0,20.56,46.3c17.471,0,27.029-14.347,27.029-26.793,0-.408-.013-.814-.032-1.215A18.689,18.689,0,0,0,52.3,13.41" transform="translate(-5.997 -9)" fill="#03a9f4"/>
</svg>
