<svg xmlns="http://www.w3.org/2000/svg" width="74" height="74" viewBox="0 0 74 74">
  <g id="Twitter" transform="translate(-625 -111)">
    <circle id="Ellipse_3" data-name="Ellipse 3" cx="37" cy="37" r="37" transform="translate(625 111)" fill="#4f4f50"/>
    <path id="icons8-twitter" d="M53.206,13.5a19.64,19.64,0,0,1-5.569,1.524A9.676,9.676,0,0,0,51.9,9.7a19.444,19.444,0,0,1-6.154,2.329,9.66,9.66,0,0,0-16.494,8.76A27.6,27.6,0,0,1,9.29,10.752a9.481,9.481,0,0,0-1.311,4.833,9.578,9.578,0,0,0,4.307,7.993,9.861,9.861,0,0,1-4.391-1.2v.113a9.629,9.629,0,0,0,7.767,9.416,9.632,9.632,0,0,1-2.545.345,10.291,10.291,0,0,1-1.825-.177,9.7,9.7,0,0,0,9.045,6.669A19.571,19.571,0,0,1,8.306,42.855,19.16,19.16,0,0,1,6,42.719a27.679,27.679,0,0,0,14.849,4.307C38.659,47.026,48.4,32.4,48.4,19.708c0-.416-.013-.83-.033-1.239A19.055,19.055,0,0,0,53.206,13.5" transform="translate(632.398 119.987)" fill="#03a9f4"/>
  </g>
</svg>
