<svg xmlns="http://www.w3.org/2000/svg" xmlns:xlink="http://www.w3.org/1999/xlink" width="156" height="156" viewBox="0 0 156 156">
  <defs>
    <filter id="Rectangle_17" x="0" y="0" width="156" height="156" filterUnits="userSpaceOnUse">
      <feOffset dy="3" input="SourceAlpha"/>
      <feGaussianBlur stdDeviation="3" result="blur"/>
      <feFlood/>
      <feComposite operator="in" in2="blur"/>
      <feComposite in="SourceGraphic"/>
    </filter>
  </defs>
  <g id="XD" transform="translate(-677 -754)">
    <g transform="matrix(1, 0, 0, 1, 677, 754)" filter="url(#Rectangle_17)">
      <path id="Rectangle_17-2" data-name="Rectangle 17" d="M0,0H120a18,18,0,0,1,18,18V138a0,0,0,0,1,0,0H18A18,18,0,0,1,0,120V0A0,0,0,0,1,0,0Z" transform="translate(9 6)" fill="#4f4f50"/>
    </g>
    <text id="Adobe_Xd" data-name="Adobe Xd" transform="translate(712 881)" fill="#ff26be" font-size="20" font-family="Rajdhani-Medium, Rajdhani" font-weight="500" letter-spacing="0.05em"><tspan x="0" y="0">ADOBE XD</tspan></text>
    <g id="adobe-xd-1" transform="translate(719.397 780.31)">
      <path id="Path_15" data-name="Path 15" d="M58.6,69.425H12.609A12.6,12.6,0,0,1,0,56.816V12.609A12.6,12.6,0,0,1,12.609,0H58.6A12.6,12.6,0,0,1,71.206,12.609V56.816A12.6,12.6,0,0,1,58.6,69.425Z" transform="translate(0 0)" fill="#ff26be"/>
      <path id="Path_16" data-name="Path 16" d="M158.7,167.69H114.969A10.788,10.788,0,0,1,104.2,156.921V114.969A10.788,10.788,0,0,1,114.969,104.2h43.7a10.768,10.768,0,0,1,10.769,10.769v41.923a10.752,10.752,0,0,1-10.741,10.8Z" transform="translate(-101.232 -101.232)" fill="#2e001f"/>
      <path id="Path_17" data-name="Path 17" d="M481.552,608.4l8.308,15.961c.148.236.06.476-.18.476h-5.164a.582.582,0,0,1-.624-.384c-1.9-3.916-3.828-7.833-5.816-12.045h-.06c-1.78,3.976-3.74,8.16-5.637,12.076a.573.573,0,0,1-.535.328h-4.89c-.3,0-.328-.236-.177-.416l8.129-15.489-7.861-15.665a.24.24,0,0,1,.177-.416h5.1c.3,0,.416.06.533.328,1.868,3.916,3.768,7.952,5.548,11.9h.06c1.72-3.916,3.62-7.981,5.46-11.869.148-.236.236-.384.535-.384h4.776c.236,0,.328.179.179.416Zm9.764,4.836c0-6.913,4.6-12.313,11.9-12.313a13.078,13.078,0,0,1,1.544.06v-7.861a.3.3,0,0,1,.3-.3h4.688c.236,0,.3.088.3.236V620.3a21.2,21.2,0,0,0,.148,2.908c0,.179-.06.236-.236.328a17.661,17.661,0,0,1-7.6,1.72c-6.44.026-11.04-3.948-11.037-12.019Zm13.438-7.593a4.461,4.461,0,0,0-1.72-.3c-3.74,0-6.349,2.877-6.349,7.656,0,5.46,2.672,7.656,6.024,7.656a5.563,5.563,0,0,0,2.048-.328V605.645Z" transform="translate(-453.397 -575.916)" fill="#ffd9f2"/>
    </g>
  </g>
</svg>
